name C:\Users\u0101727\Documents\MyRepositories\upper-imu-dc\OpenSim\subject0\MA\ResultsMA\grid_4nodes_9dim\angles_25.mot
datacolumns 10
datarows 33
range 2500.01000000 2500.33000000
endheader 
time	clav_prot	clav_elev	scapula_abduction	scapula_elevation	scapula_upward_rot	scapula_winging	plane_elv	shoulder_elv	axial_rot	
       2500.01000000	        -50.00000000	        -10.00000000	        -21.66666667	          3.33333333	          0.00000000	        -20.00000000	        -30.00000000	        100.00000000	         90.00000000	
       2500.02000000	        -38.33333333	        -10.00000000	        -21.66666667	          3.33333333	          0.00000000	        -20.00000000	        -30.00000000	        100.00000000	         90.00000000	
       2500.03000000	        -26.66666667	        -10.00000000	        -21.66666667	          3.33333333	          0.00000000	        -20.00000000	        -30.00000000	        100.00000000	         90.00000000	
       2500.04000000	        -15.00000000	        -10.00000000	        -21.66666667	          3.33333333	          0.00000000	        -20.00000000	        -30.00000000	        100.00000000	         90.00000000	
       2500.05000000	        -50.00000000	          0.00000000	        -21.66666667	          3.33333333	          0.00000000	        -20.00000000	        -30.00000000	        100.00000000	         90.00000000	
       2500.06000000	        -38.33333333	          0.00000000	        -21.66666667	          3.33333333	          0.00000000	        -20.00000000	        -30.00000000	        100.00000000	         90.00000000	
       2500.07000000	        -26.66666667	          0.00000000	        -21.66666667	          3.33333333	          0.00000000	        -20.00000000	        -30.00000000	        100.00000000	         90.00000000	
       2500.08000000	        -15.00000000	          0.00000000	        -21.66666667	          3.33333333	          0.00000000	        -20.00000000	        -30.00000000	        100.00000000	         90.00000000	
       2500.09000000	        -50.00000000	         10.00000000	        -21.66666667	          3.33333333	          0.00000000	        -20.00000000	        -30.00000000	        100.00000000	         90.00000000	
       2500.10000000	        -38.33333333	         10.00000000	        -21.66666667	          3.33333333	          0.00000000	        -20.00000000	        -30.00000000	        100.00000000	         90.00000000	
       2500.11000000	        -26.66666667	         10.00000000	        -21.66666667	          3.33333333	          0.00000000	        -20.00000000	        -30.00000000	        100.00000000	         90.00000000	
       2500.12000000	        -15.00000000	         10.00000000	        -21.66666667	          3.33333333	          0.00000000	        -20.00000000	        -30.00000000	        100.00000000	         90.00000000	
       2500.13000000	        -50.00000000	         20.00000000	        -21.66666667	          3.33333333	          0.00000000	        -20.00000000	        -30.00000000	        100.00000000	         90.00000000	
       2500.14000000	        -38.33333333	         20.00000000	        -21.66666667	          3.33333333	          0.00000000	        -20.00000000	        -30.00000000	        100.00000000	         90.00000000	
       2500.15000000	        -26.66666667	         20.00000000	        -21.66666667	          3.33333333	          0.00000000	        -20.00000000	        -30.00000000	        100.00000000	         90.00000000	
       2500.16000000	        -15.00000000	         20.00000000	        -21.66666667	          3.33333333	          0.00000000	        -20.00000000	        -30.00000000	        100.00000000	         90.00000000	
       2500.17000000	        -50.00000000	        -10.00000000	         -3.33333333	          3.33333333	          0.00000000	        -20.00000000	        -30.00000000	        100.00000000	         90.00000000	
       2500.18000000	        -38.33333333	        -10.00000000	         -3.33333333	          3.33333333	          0.00000000	        -20.00000000	        -30.00000000	        100.00000000	         90.00000000	
       2500.19000000	        -26.66666667	        -10.00000000	         -3.33333333	          3.33333333	          0.00000000	        -20.00000000	        -30.00000000	        100.00000000	         90.00000000	
       2500.20000000	        -15.00000000	        -10.00000000	         -3.33333333	          3.33333333	          0.00000000	        -20.00000000	        -30.00000000	        100.00000000	         90.00000000	
       2500.21000000	        -50.00000000	          0.00000000	         -3.33333333	          3.33333333	          0.00000000	        -20.00000000	        -30.00000000	        100.00000000	         90.00000000	
       2500.22000000	        -38.33333333	          0.00000000	         -3.33333333	          3.33333333	          0.00000000	        -20.00000000	        -30.00000000	        100.00000000	         90.00000000	
       2500.23000000	        -26.66666667	          0.00000000	         -3.33333333	          3.33333333	          0.00000000	        -20.00000000	        -30.00000000	        100.00000000	         90.00000000	
       2500.24000000	        -15.00000000	          0.00000000	         -3.33333333	          3.33333333	          0.00000000	        -20.00000000	        -30.00000000	        100.00000000	         90.00000000	
       2500.25000000	        -50.00000000	         10.00000000	         -3.33333333	          3.33333333	          0.00000000	        -20.00000000	        -30.00000000	        100.00000000	         90.00000000	
       2500.26000000	        -38.33333333	         10.00000000	         -3.33333333	          3.33333333	          0.00000000	        -20.00000000	        -30.00000000	        100.00000000	         90.00000000	
       2500.27000000	        -26.66666667	         10.00000000	         -3.33333333	          3.33333333	          0.00000000	        -20.00000000	        -30.00000000	        100.00000000	         90.00000000	
       2500.28000000	        -15.00000000	         10.00000000	         -3.33333333	          3.33333333	          0.00000000	        -20.00000000	        -30.00000000	        100.00000000	         90.00000000	
       2500.29000000	        -50.00000000	         20.00000000	         -3.33333333	          3.33333333	          0.00000000	        -20.00000000	        -30.00000000	        100.00000000	         90.00000000	
       2500.30000000	        -38.33333333	         20.00000000	         -3.33333333	          3.33333333	          0.00000000	        -20.00000000	        -30.00000000	        100.00000000	         90.00000000	
       2500.31000000	        -26.66666667	         20.00000000	         -3.33333333	          3.33333333	          0.00000000	        -20.00000000	        -30.00000000	        100.00000000	         90.00000000	
       2500.32000000	        -15.00000000	         20.00000000	         -3.33333333	          3.33333333	          0.00000000	        -20.00000000	        -30.00000000	        100.00000000	         90.00000000	
       2500.33000000	        -50.00000000	        -10.00000000	         15.00000000	          3.33333333	          0.00000000	        -20.00000000	        -30.00000000	        100.00000000	         90.00000000	
